<?xml version="1.0" standalone="no"?>
<!DOCTYPE svg PUBLIC "-//W3C//DTD SVG 20010904//EN"
 "http://www.w3.org/TR/2001/REC-SVG-20010904/DTD/svg10.dtd">
<svg version="1.0" xmlns="http://www.w3.org/2000/svg"
 width="250.000000pt" height="250.000000pt" viewBox="0 0 250.000000 250.000000"
 preserveAspectRatio="xMidYMid meet">
<metadata>
Created by potrace 1.11, written by Peter Selinger 2001-2013
</metadata>
<g transform="translate(0.000000,250.000000) scale(0.100000,-0.100000)"
fill="#000000" stroke="none">
<path d="M1153 2319 c-205 -24 -357 -128 -442 -301 -22 -45 -48 -110 -56 -143
-21 -83 -38 -249 -32 -315 l5 -55 -41 0 c-55 0 -66 -27 -49 -127 16 -90 52
-158 124 -231 34 -34 74 -90 100 -139 42 -81 120 -168 261 -295 65 -58 65 -90
0 -134 -27 -17 -57 -42 -68 -54 -14 -16 -59 -34 -145 -60 -146 -43 -229 -72
-248 -88 -38 -31 -102 -236 -102 -328 l0 -49 795 0 795 0 0 58 c0 78 -55 267
-89 304 -18 20 -59 40 -136 67 -197 69 -259 97 -310 136 -28 21 -60 42 -72 48
-39 18 -29 51 30 99 118 97 221 212 265 296 26 49 66 105 100 139 72 73 108
141 124 231 16 96 6 126 -43 130 l-36 3 -6 137 c-7 159 -30 260 -83 368 -44
89 -123 178 -199 223 -111 67 -287 99 -442 80z m-235 -1004 c9 -19 9 -25 0
-25 -14 0 -48 30 -48 42 0 19 38 6 48 -17z m32 10 c0 -8 -4 -15 -10 -15 -5 0
-10 7 -10 15 0 8 5 15 10 15 6 0 10 -7 10 -15z m544 -6 c-3 -5 -10 -7 -15 -3
-5 3 -7 10 -3 15 3 5 10 7 15 3 5 -3 7 -10 3 -15z m136 14 c0 -12 -33 -43 -46
-43 -11 0 -11 5 -2 25 10 22 48 36 48 18z m-551 -27 c9 -11 5 -16 -20 -25 -47
-16 -52 -14 -32 14 21 28 35 31 52 11z m394 -11 c20 -28 15 -30 -32 -14 -25 9
-29 14 -20 25 17 20 31 17 52 -11z m-167 -1086 c10 -17 -13 -36 -27 -22 -12
12 -4 33 11 33 5 0 12 -5 16 -11z m-36 -79 c0 -21 -15 -27 -25 -10 -7 12 2 30
16 30 5 0 9 -9 9 -20z m0 -85 c0 -8 -7 -15 -15 -15 -8 0 -15 7 -15 15 0 8 7
15 15 15 8 0 15 -7 15 -15z"/>
</g>
</svg>
